<?xml version="1.0" encoding="UTF-8" standalone="no"?>
<!-- Created with Inkscape (http://www.inkscape.org/) -->

<svg
   width="407.90524mm"
   height="130.187mm"
   viewBox="0 0 414.59841 60.018882"
   version="1.1"
   id="svg636"
   inkscape:version="1.1.1 (3bf5ae0d25, 2021-09-20)"
   sodipodi:docname="logo-horizontal.svg"
   xmlns:inkscape="http://www.inkscape.org/namespaces/inkscape"
   xmlns:sodipodi="http://sodipodi.sourceforge.net/DTD/sodipodi-0.dtd"
   xmlns="http://www.w3.org/2000/svg"
   xmlns:svg="http://www.w3.org/2000/svg">
  <sodipodi:namedview
     id="namedview638"
     pagecolor="#ffffff"
     bordercolor="#666666"
     borderopacity="1.0"
     inkscape:pageshadow="2"
     inkscape:pageopacity="0.0"
     inkscape:pagecheckerboard="0"
     inkscape:document-units="mm"
     showgrid="false"
     inkscape:zoom="0.4454776"
     inkscape:cx="578.03131"
     inkscape:cy="465.79222"
     inkscape:window-width="1920"
     inkscape:window-height="1080"
     inkscape:window-x="1920"
     inkscape:window-y="0"
     inkscape:window-maximized="1"
     inkscape:current-layer="layer1"
     fit-margin-top="5"
     fit-margin-right="5"
     fit-margin-bottom="5"
     fit-margin-left="5"
     width="257.80264mm"
     height="124.1591mm" />
  <defs
     id="defs633" />
  <g
     inkscape:label="Layer 1"
     inkscape:groupmode="layer"
     id="layer1"
     transform="translate(-13.105082,-52.593747)">
    <path
       style="fill:#fff;stroke-width:0.192424"
       d="m 29.56909,124.80537 c -0.33745,-0.33745 -0.28683,-1.20795 0.23588,-4.05642 0.75003,-4.0872 1.77779,-10.94399 2.60213,-17.3604 0.86693,-6.747919 1.23553,-9.320799 2.31567,-16.163629 0.41764,-2.64584 0.85577,-5.54419 0.97361,-6.44078 0.11784,-0.8966 0.24948,-1.68717 0.29253,-1.75683 0.043,-0.0697 1.38026,-7.56222 2.97158,-16.65013 1.59132,-9.0879 2.93699,-16.644491 2.99038,-16.792431 0.0534,-0.14793 -1.13905,0.89474 -2.64986,2.31706 -1.51081,1.422311 -4.99829,4.628591 -7.74995,7.125061 -9.59673,8.70674 -11.349755,10.91541 -11.352005,14.30259 -5.8e-4,0.84667 -0.0711,1.64763 -0.1567,1.77992 -0.27158,0.41962 -1.04422,0.26952 -1.48574,-0.28863 -0.37303,-0.47157 -0.41017,-0.70846 -0.34129,-2.17639 0.0655,-1.39552 0.18152,-1.86596 0.75933,-3.07878 1.50478,-3.15844 3.797385,-5.63084 12.675895,-13.66993 3.22611,-2.92111 7.2719,-6.752751 8.99063,-8.514771 1.71873,-1.76201 3.23645,-3.20366 3.37271,-3.20366 0.46769,0 1.10308,0.59936 1.10308,1.04053 0,0.24279 -0.0845,0.69248 -0.18784,0.99931 -0.31464,0.93452 -4.64646,24.957111 -4.61281,25.580841 0.005,0.10153 0.26942,-0.46484 0.58654,-1.25859 0.93117,-2.33076 3.702,-7.84408 4.88367,-9.71743 4.32075,-6.84982 9.81415,-11.832281 14.8206,-13.442141 3.84445,-1.23622 7.47574,-0.51022 9.91458,1.9822 3.54421,3.622091 4.7575,11.350821 2.99222,19.060701 -3.21168,14.02705 -15.3119,25.61073 -26.73018,25.58909 -3.24929,-0.006 -6.01641,-0.9307 -8.26349,-2.76097 -0.72431,-0.58996 -1.13753,-0.81742 -1.19292,-0.65666 -0.40643,1.17962 -1.59683,9.07387 -2.79363,18.526269 -0.87912,6.94329 -1.06816,8.21655 -2.1395,14.41025 -0.73477,4.24791 -0.94561,5.05424 -1.40112,5.35839 -0.33069,0.22081 -1.16878,0.17158 -1.424,-0.0836 z M 49.21197,87.611731 c 6.36247,-1.10952 12.93009,-5.85346 17.31849,-12.50954 2.49791,-3.78869 4.41402,-8.62742 5.17008,-13.05594 0.33117,-1.93978 0.38258,-2.8624 0.3018,-5.41679 -0.14694,-4.64676 -1.0506,-7.51581 -3.02469,-9.603121 -2.33931,-2.47347 -5.51746,-2.67307 -9.71749,-0.61028 -7.34962,3.609661 -13.74508,12.890351 -18.28924,26.540231 -1.22572,3.68182 -2.77846,9.29485 -2.78027,10.05041 -0.002,0.70959 1.13903,2.1562 2.32452,2.94785 2.58456,1.7259 5.31701,2.24658 8.6968,1.65718 z M 95.75912,104.3157 c -0.77486,-0.38184 -1.45563,-1.23989 -1.89108,-2.38354 -0.43153,-1.13338 -0.42662,-5.150619 0.009,-7.779969 0.69652,-4.19917 3.12979,-12.25462 4.82602,-15.97676 l 0.6863,-1.50598 -0.61965,-0.63931 c -0.3408,-0.35162 -0.67743,-0.63931 -0.74806,-0.63931 -0.0706,0 -0.36619,0.84426 -0.65681,1.87613 -3.33699,11.84819 -8.04995,21.42251 -11.75241,23.874919 -1.70735,1.1309 -3.56051,0.72682 -4.43662,-0.9674 -0.77063,-1.490239 -0.72854,-5.057739 0.11094,-9.402839 0.19285,-0.9982 0.33792,-1.82705 0.32238,-1.8419 -0.0156,-0.0148 -0.93102,1.38519 -2.03438,3.1112 -3.54416,5.54416 -5.58781,7.68281 -7.34156,7.68281 -0.80999,0 -1.6202,-0.59727 -1.94201,-1.43161 -0.51582,-1.33731 -0.0633,-5.30996 1.07638,-9.4492 0.88002,-3.19622 4.21224,-12.94108 4.58346,-13.40401 0.26516,-0.33068 1.20157,-0.30271 1.48972,0.0445 0.37454,0.4513 0.14171,1.44095 -1.33631,5.68014 -2.39659,6.87377 -3.55094,11.28572 -3.78853,14.47992 -0.15654,2.10451 0.0244,2.16312 1.55933,0.50517 1.80725,-1.95205 8.55169,-12.49704 10.07656,-15.75479 0.83485,-1.78359 1.11142,-2.11667 1.75753,-2.11667 1.0766,0 1.26804,1.00656 0.51696,2.7181 -1.55294,3.53878 -3.39158,12.10356 -3.39377,15.80892 -9.6e-4,1.63494 0.3654,2.83207 0.86672,2.83207 0.5286,0 2.3832,-1.93047 3.59484,-3.74189 2.8004,-4.18664 5.5793,-11.00529 8.14398,-19.98304 l 0.70334,-2.46205 -0.54542,-0.68575 c -2.781,-3.4966 -4.1854,-5.93325 -4.95845,-8.60296 -1.73667,-5.99755 1.25115,-11.87473 5.34924,-10.52225 1.46247,0.48265 3.11003,2.6655 3.70418,4.90766 0.67647,2.55277 0.49677,6.59629 -0.51079,11.49353 l -0.56282,2.7356 1.63215,1.66792 c 0.89768,0.91736 1.63214,1.79736 1.63214,1.95557 0,0.15821 -0.38202,1.10021 -0.84893,2.09334 -1.69922,3.61426 -3.88868,10.42618 -4.74167,14.75252 -0.49121,2.49136 -0.70289,6.54418 -0.39984,7.655089 0.30051,1.1016 0.97869,1.69783 1.74079,1.53045 1.96252,-0.43104 5.50721,-4.360859 8.24766,-9.143739 2.22679,-3.8864 3.31156,-6.67276 4.17318,-10.71932 1.39203,-6.53758 3.54433,-10.69967 6.16384,-11.91952 3.10823,-1.44744 6.36352,0.99613 6.00138,4.50492 -0.22321,2.16269 -1.91099,4.48985 -4.60149,6.34469 -1.48586,1.02436 -3.63003,2.15717 -4.80183,2.53692 -0.67682,0.21934 -0.72211,0.28909 -1.01023,1.55585 -0.39118,1.71988 -0.39336,5.34443 -0.004,7.22778 1.1333,5.48667 3.82001,6.30119 10.42898,3.16171 1.08404,-0.51495 3.48066,-1.76754 5.32582,-2.78352 8.24125,-4.5378 12.33218,-5.99221 17.44842,-6.20328 2.049,-0.0845 2.92961,-0.0383 4.06048,0.21333 3.06639,0.68221 5.46328,2.33278 6.62763,4.564 0.45137,0.86496 0.5411,1.27541 0.54515,2.49365 0.004,1.29243 -0.0615,1.56556 -0.57841,2.40167 -0.96869,1.56682 -2.49026,2.27541 -3.25148,1.51419 -0.52857,-0.52858 -0.34915,-1.07432 0.65975,-2.00671 0.89359,-0.82582 0.96212,-0.95398 0.96212,-1.79921 0,-3.16815 -4.18104,-5.59249 -9.058,-5.2522 -4.59854,0.32087 -8.87048,1.90989 -16.64886,6.19283 -1.84356,1.0151 -4.23887,2.26814 -5.32291,2.78452 -5.7655,2.746409 -9.59039,2.536439 -11.76899,-0.64607 -0.79033,-1.15452 -1.16781,-2.13868 -1.62995,-4.24955 l -0.3342,-1.52651 -1.02121,1.91135 c -1.69911,3.18015 -3.58429,5.78526 -5.77844,7.985199 -2.33665,2.34281 -3.54513,3.06892 -5.09605,3.06193 -0.53484,-0.002 -1.25996,-0.14606 -1.61136,-0.31923 z m 17.91539,-22.886279 c 2.65782,-1.33398 5.04057,-3.37098 5.8894,-5.03482 0.25655,-0.50289 0.40609,-1.15858 0.40609,-1.78061 0,-0.83166 -0.0874,-1.07194 -0.56247,-1.54705 -0.42615,-0.42616 -0.74094,-0.5623 -1.29886,-0.56175 -1.95876,0.002 -3.50152,2.19435 -4.98347,7.08204 -0.36286,1.19677 -0.65974,2.21422 -0.65974,2.26098 0,0.15694 0.2,0.0877 1.20905,-0.41879 z M 97.56655,66.466881 c 0.39981,-2.6814 0.30208,-6.49749 -0.20389,-7.9605 -0.39105,-1.13076 -1.45511,-2.49036 -2.15826,-2.75769 -1.53497,-0.5836 -3.17636,2.68635 -2.86651,5.71061 0.24124,2.35473 1.53178,5.31771 3.42788,7.87016 l 1.0006,1.34697 0.24406,-1.05833 c 0.13423,-0.58209 0.38448,-2.00014 0.55612,-3.15122 z"
       id="path97" />
  </g>
  <g
     inkscape:label="Layer 1"
     inkscape:groupmode="layer"
     id="g7"
     transform="translate(30.411799,-56.662992)">
    <path
       style="fill:#fff;fill-opacity:1;stroke-width:0.192424"
       d="m 328.75739,147.50701 c -5.03721,-1.27627 -7.91177,-4.85165 -7.58023,-9.42826 0.37281,-5.14585 4.42911,-11.28327 15.32473,-23.18712 6.74897,-7.37349 11.57599,-12.77326 13.67511,-15.297727 l 1.44,-1.73182 0.3461,-4.42575 c 0.19034,-2.43417 0.64113,-7.41315 1.00176,-11.0644 0.36062,-3.65125 0.70356,-7.20147 0.76207,-7.88939 0.1047,-1.23089 0.10182,-1.24064 -0.1813,-0.61372 -0.15821,0.35037 -1.05935,2.86151 -2.0025,5.5803 -2.85117,8.21889 -5.37729,13.71764 -7.48657,16.2963 -0.63548,0.77691 -1.74979,1.44099 -2.41997,1.44219 -2.15686,0.004 -3.48784,-2.58243 -3.6723,-7.13588 -0.0432,-1.06743 -0.11557,-1.97773 -0.16073,-2.0229 -0.0452,-0.0452 -0.23863,0.50361 -0.42991,1.21951 -0.67799,2.53744 -2.46067,7.30153 -3.6724,9.81425 -1.52899,3.170527 -2.65122,4.476007 -3.84777,4.476007 -1.59682,0 -3.0385,-1.66563 -3.76178,-4.346077 -0.3496,-1.29563 -0.4247,-2.22158 -0.50331,-6.20558 -0.052,-2.63655 -0.16516,-4.60996 -0.25892,-4.51619 -0.0916,0.0916 -0.463,1.07314 -0.82531,2.18121 -0.79643,2.43568 -2.58536,7.19619 -3.2518,8.65331 -1.36992,2.995177 -3.22814,4.018907 -4.61098,2.540267 -0.74376,-0.79529 -1.04958,-1.53776 -1.53043,-3.715527 -0.4027,-1.82388 -0.44159,-2.47781 -0.44217,-7.43576 0,-2.98981 -0.0486,-5.436 -0.10716,-5.43598 -0.29137,8e-5 -7.52566,2.57935 -7.98245,2.84601 -0.12868,0.0751 -0.75086,1.13239 -1.38263,2.34947 -2.9042,5.59494 -7.05021,9.839097 -11.8588,12.139567 -2.87585,1.37585 -4.61356,1.40578 -6.03409,0.10396 -0.56971,-0.52211 -0.6985,-0.78919 -0.77763,-1.61278 -0.15378,-1.600357 0.70233,-3.178177 2.89583,-5.337057 2.78617,-2.74217 6.41556,-5.12332 11.75868,-7.71458 l 3.32363,-1.61185 0.40652,-1.39916 c 1.22882,-4.22946 0.97299,-8.48637 -0.66046,-10.98927 -0.62301,-0.95461 -1.88645,-1.54607 -2.90701,-1.36086 -3.82634,0.69438 -8.88227,7.02775 -11.89301,14.89796 -2.58772,6.76436 -3.86046,13.747657 -4.99703,27.418157 -0.27276,3.28083 -0.54654,6.18163 -0.60839,6.44621 -0.2751,1.17707 -1.5056,1.57898 -2.09238,0.68344 -0.35446,-0.541 -0.26647,-3.62692 0.59292,-20.79177 0.65971,-13.176757 1.05489,-21.583437 1.04802,-22.293967 -0.004,-0.43363 -0.0524,-0.52292 -0.17066,-0.31588 -0.48047,0.84141 -3.11666,10.41622 -4.34479,15.78052 -1.06541,4.6535 -2.06498,6.540687 -3.46435,6.540687 -0.82473,0 -1.68658,-0.71315 -2.09478,-1.733347 -0.83753,-2.09317 -1.55443,-7.61697 -1.71048,-13.17952 l -0.0432,-1.5394 -0.96107,2.02046 c -5.53787,11.64233 -8.32504,15.586357 -11.01457,15.586357 -1.60694,0 -2.70897,-0.88187 -3.78323,-3.027447 -0.99305,-1.98339 -1.4296,-4.50834 -1.62239,-9.38391 l -0.12935,-3.27122 -0.80475,1.82803 c -4.70601,10.68972 -4.82593,10.93515 -5.90706,12.091037 -1.73561,1.85559 -3.3315,1.52471 -4.42772,-0.917997 -0.54193,-1.20757 -1.27277,-4.45352 -1.67082,-7.42076 -0.12777,-0.9525 -0.29339,-1.80072 -0.36803,-1.88493 -0.0746,-0.0842 -0.42209,0.47863 -0.77211,1.25076 -1.82048,4.01597 -3.11773,6.94749 -5.12976,11.592297 -1.44406,3.33363 -3.14366,6.62015 -3.76342,7.27728 -1.19815,1.27041 -2.33928,1.14592 -3.11606,-0.33996 -0.35193,-0.67318 -0.41092,-1.17758 -0.47048,-4.02258 -0.0374,-1.78909 0.0323,-4.21364 0.15492,-5.38788 0.28843,-2.761317 1.33519,-8.313987 2.41575,-12.814537 0.97794,-4.07308 1.44024,-6.73737 1.44135,-8.30661 0.002,-1.89648 -0.26348,-2.05649 -1.97796,-1.1951 -2.91336,1.46372 -6.03209,4.94792 -8.07445,9.02065 -0.97286,1.94001 -2.8672,7.1324 -3.21721,8.81841 -0.35068,1.68919 -1.46837,2.169 -2.25522,0.96812 -0.2764,-0.42184 -0.29899,-0.98826 -0.18948,-4.74791 0.0684,-2.34791 0.25831,-6.4263 0.42201,-9.06308 0.17482,-2.81568 0.22667,-4.86513 0.12569,-4.96612 -0.34906,-0.34905 -2.32928,2.39902 -7.24115,10.04891 -3.18022,4.95294 -4.84099,7.20023 -6.48628,8.77694 -2.42872,2.3275 -4.4536,2.77999 -6.07393,1.35732 -0.67539,-0.593 -1.97669,-2.97533 -1.97669,-3.61877 0,-1.03089 -0.27026,-0.91077 -1.00619,0.44724 -4.11851,7.599797 -7.38026,12.126847 -9.52138,13.214957 -1.09395,0.55594 -1.6526,0.51847 -2.42861,-0.16288 -0.93072,-0.81718 -1.16724,-1.83556 -1.04096,-4.4822 0.21856,-4.580987 1.9279,-12.243237 4.36661,-19.573507 l 1.31235,-3.9447 -1.08935,-1.25076 c -0.59913,-0.68792 -1.32538,-1.53896 -1.61388,-1.8912 -0.34727,-0.42399 -0.55443,-0.55406 -0.61291,-0.38485 -0.0486,0.14058 -0.47946,1.64105 -0.95748,3.33438 -1.02062,3.61545 -2.2317,6.97239 -3.69578,10.24407 -2.02696,4.52953 -3.81754,7.37767 -6.26522,9.965627 -3.23652,3.42201 -6.04472,3.81487 -7.84465,1.09747 -0.9207,-1.39002 -1.53216,-4.022387 -1.54117,-6.634817 -0.002,-0.60854 -0.0703,-1.10644 -0.15165,-1.10644 -0.0813,0 -0.57921,0.36084 -1.10644,0.80186 -0.77468,0.64801 -12.52745,10.054757 -14.8655,11.898137 l -0.61016,0.48106 1.0379,2.14395 c 3.09749,6.39834 3.18426,11.71296 0.27013,16.54409 -2.10534,3.49029 -6.57408,6.6019 -10.79279,7.51509 -2.02988,0.43938 -5.1253,0.39282 -6.673,-0.10039 -4.47019,-1.42451 -5.90131,-5.23075 -3.68162,-9.79175 1.82923,-3.75866 5.52471,-7.62701 13.62273,-14.25998 1.71979,-1.40866 3.1269,-2.60398 3.1269,-2.65628 0,-0.24509 -2.90336,-4.30137 -7.39258,-10.328167 -6.7349,-9.04165 -9.14509,-13.08978 -10.81616,-18.16667 -1.05864,-3.21627 -1.41853,-5.28093 -1.41853,-8.13793 0,-6.06351 2.46587,-11.81366 7.04799,-16.435168 3.2417,-3.26957 7.28199,-5.59719 11.79542,-6.79537 1.54414,-0.40993 2.27803,-0.49024 4.53613,-0.49641 2.5634,-0.007 2.7868,0.0241 4.61016,0.64254 4.86275,1.64926 7.70715,4.90779 9.404,10.773208 1.78904,6.18413 0.77206,15.91949 -2.19344,20.99713 -0.89408,1.53089 -1.48342,1.90718 -2.22549,1.42097 -0.64716,-0.42404 -0.67038,-1.07928 -0.0615,-1.73642 0.9837,-1.06171 2.35505,-5.46504 2.86462,-9.19826 0.25889,-1.89675 0.26409,-6.75635 0.009,-8.40463 -0.34546,-2.2319 -1.50056,-5.47787 -2.48518,-6.983688 -1.10037,-1.68285 -2.75755,-3.23334 -4.27399,-3.99883 -1.4518,-0.73287 -3.95347,-1.32957 -5.5814,-1.33128 -1.45621,-10e-4 -4.28013,0.52666 -6.12807,1.14622 -3.58223,1.20102 -7.72264,4.16214 -10.26799,7.343428 -5.54623,6.93192 -6.27405,15.0891 -2.13539,23.93248 1.56323,3.3403 4.35623,7.69128 8.44856,13.16132 4.30476,5.754 5.86157,7.886567 6.93653,9.501877 0.61816,0.92893 1.19176,1.66495 1.27463,1.63561 0.29097,-0.10301 12.07965,-9.515067 15.68531,-12.523117 l 2.52726,-2.10838 0.23489,-1.46623 c 0.53011,-3.30919 1.90312,-6.53067 3.50547,-8.22494 2.91169,-3.07866 6.21546,-2.43375 6.16412,1.20326 -0.0478,3.38543 -2.94141,7.86511 -6.63665,10.27433 l -1.29887,0.84683 v 1.81957 c 0,3.20412 0.67103,5.548907 1.76413,6.164477 0.43347,0.24411 0.57412,0.2288 1.35063,-0.14711 1.03647,-0.50174 3.05042,-2.498127 4.39708,-4.358707 2.84875,-3.93591 6.19135,-11.97806 8.09883,-19.4854 0.59411,-2.33826 0.62428,-2.59139 0.36018,-3.02144 -0.15856,-0.25815 -0.81902,-1.31778 -1.4677,-2.35474 -2.26319,-3.61789 -4.14784,-7.93585 -4.79352,-10.98258 -0.36612,-1.72767 -0.3617,-5.0887 0.008,-6.33478 0.64078,-2.157728 2.07284,-3.891248 3.54119,-4.286638 1.89882,-0.5113 4.0466,0.95045 5.2294,3.55907 1.04284,2.299928 1.36503,3.942098 1.4716,7.500448 0.10774,3.59782 -0.0786,5.85112 -0.82446,9.96779 l -0.48512,2.67777 0.82507,1.07287 c 0.45382,0.59008 1.54224,1.90119 2.41876,2.91359 0.87653,1.01239 1.64453,2.03935 1.7067,2.28215 0.0718,0.2802 -0.41904,2.07235 -1.34377,4.90681 -1.78547,5.4728 -3.03861,10.15501 -3.6979,13.8166 -0.55295,3.071177 -0.86125,7.870747 -0.50555,7.870747 1.00973,0 4.89425,-5.39193 7.94868,-11.033177 2.90734,-5.36957 3.18714,-5.99323 3.32692,-7.41548 0.50211,-5.10929 3.18269,-10.0535 7.48541,-13.80647 3.49976,-3.05259 6.98641,-3.40375 8.35868,-0.84184 0.66775,1.24663 0.50968,2.47523 -0.6066,4.7144 -1.4735,2.95581 -3.68867,5.72852 -6.17835,7.73341 -1.70094,1.36972 -4.16333,2.6647 -5.45569,2.86913 -0.65251,0.10323 -0.92104,0.2645 -1.21576,0.73013 -0.32772,0.5178 -0.36312,0.8161 -0.26495,2.23324 0.19254,2.77956 1.04202,5.08514 1.95832,5.31512 0.71176,0.17864 1.1999,-0.0962 2.69708,-1.51833 1.86761,-1.77406 3.10992,-3.48478 7.089,-9.76194 3.39466,-5.35522 5.93662,-8.78052 7.20779,-9.71255 0.81654,-0.59869 1.88243,-0.64654 2.45797,-0.11034 0.91161,0.84929 0.97888,2.2288 0.51645,10.59258 l -0.12234,2.21288 1.16378,-2.26077 c 2.58841,-5.02824 6.36183,-9.03714 9.83447,-10.4482 2.85448,-1.15987 4.43185,-0.061 4.59714,3.20271 0.0878,1.73279 -0.49198,5.11943 -1.78142,10.40606 -1.07243,4.39703 -1.95743,9.62753 -2.22448,13.147167 -0.21086,2.77895 -0.0934,5.3727 0.23411,5.17029 0.20293,-0.12541 1.39707,-2.61992 2.88959,-6.0362 0.53173,-1.21708 1.29278,-2.948897 1.69125,-3.848477 0.39846,-0.89959 1.0871,-2.45822 1.53035,-3.46364 1.12187,-2.54478 1.10313,-2.50409 3.27835,-7.11849 1.07233,-2.27475 2.12369,-4.78589 2.33638,-5.5803 0.49313,-1.84192 1.8557,-4.67555 2.74422,-5.70689 0.91777,-1.06532 2.22152,-1.9047 3.39609,-2.18648 0.81475,-0.19545 1.11226,-0.18108 1.9544,0.0944 0.54633,0.1787 1.36265,0.579 1.81402,0.88956 0.82954,0.57073 2.36722,2.404 2.78442,3.31967 0.3252,0.71372 0.48589,0.49272 0.6406,-0.88099 0.4545,-4.03604 2.88455,-14.1037 4.63379,-19.19774 4.30857,-12.547198 11.31412,-21.920738 15.75969,-21.086738 0.93399,0.17521 1.93737,1.09413 2.33682,2.14007 1.2798,3.35111 -1.70195,12.12173 -7.65454,22.515318 -3.33871,5.82958 -10.06988,15.99505 -12.68318,19.15422 l -0.73092,0.8836 -0.22441,2.67625 c -0.28101,3.35111 -0.12024,9.06562 0.31077,11.0467 0.36291,1.668 0.86167,2.88769 1.54973,3.78979 0.7263,0.952237 1.31348,0.865117 2.52227,-0.37426 1.3269,-1.36047 2.34968,-3.00364 4.64114,-7.45644 1.79649,-3.49098 2.40909,-4.77799 5.01856,-10.54352 0.99553,-2.1996 1.18085,-3.15178 0.80558,-4.13881 -0.37436,-0.98464 0.41345,-2.63585 1.25759,-2.63585 0.14703,0 0.4405,0.17318 0.65217,0.38485 0.35971,0.35972 0.38521,0.6455 0.39043,4.37765 0.008,5.66869 0.30712,12.48432 0.6568,14.96099 0.34817,2.46612 0.69347,4.1199 0.88494,4.23823 0.22835,0.14112 0.72596,-1.41036 1.42111,-4.43066 0.95492,-4.149 2.13462,-8.66195 3.018,-11.54545 1.95568,-6.38353 2.88386,-9.0975 3.21333,-9.39567 0.56532,-0.51162 1.23856,-0.39347 1.95193,0.34254 0.6238,0.64359 0.64662,0.72302 0.73235,2.54962 0.0816,1.73813 -0.17168,10.20742 -0.46203,15.45123 -0.0674,1.21709 -0.067,2.16214 0,2.10013 0.0679,-0.062 0.37732,-1.01452 0.68755,-2.11667 1.87325,-6.65501 5.27712,-12.95368 9.04742,-16.74171 3.02991,-3.04414 4.74703,-3.94409 7.22463,-3.78646 0.74083,0.0471 1.60674,0.22125 1.92424,0.38693 1.53091,0.79889 2.90886,2.88373 3.49833,5.29301 0.39916,1.63143 0.39657,5.93881 -0.005,7.74508 -0.1528,0.68791 -0.25388,1.27666 -0.22463,1.30833 0.0293,0.0317 1.748,-0.51885 3.81939,-1.22338 l 3.7662,-1.28095 0.10085,-0.79708 c 0.16233,-1.28286 0.86681,-6.24422 1.12351,-7.91215 0.21607,-1.4041 0.28072,-1.55043 0.75951,-1.7188 0.41466,-0.14583 0.60449,-0.11062 0.91402,0.16951 0.49561,0.44851 0.49792,1.10254 0.0167,4.71967 -1.02327,7.69275 -1.33048,15.92586 -0.72517,19.43485 0.34885,2.02222 0.75719,3.36742 1.02222,3.36742 0.2818,0 1.71886,-3.08358 2.69032,-5.77273 0.49701,-1.37583 1.81202,-5.14253 2.92223,-8.37045 l 2.01859,-5.86894 0.25681,-3.36742 c 0.35077,-4.59958 0.80722,-9.46737 1.13676,-12.12273 0.3684,-2.96848 0.75677,-7.87012 0.63337,-7.99352 -0.0546,-0.0546 -1.08537,0.11758 -2.29062,0.38262 -1.20525,0.26503 -3.57682,0.78691 -5.27016,1.15974 -12.73115,2.80307 -16.70198,3.56539 -23.76439,4.56231 -3.82724,0.54025 -4.85417,0.61272 -8.85151,0.62462 -4.08759,0.0122 -4.68832,-0.0284 -6.25379,-0.42245 -3.32819,-0.83775 -5.09924,-2.06907 -5.09924,-3.54522 0,-0.93036 0.58043,-1.45853 1.26172,-1.14811 0.26976,0.12291 0.58187,0.48564 0.69358,0.80607 0.34846,0.99962 1.88945,1.51191 6.08749,2.02372 2.35531,0.28716 2.82556,0.28698 6.05877,-0.002 5.06747,-0.45336 9.7404,-1.11883 15.43556,-2.19816 4.92003,-0.93244 7.06578,-1.38349 15.68257,-3.29659 2.38125,-0.52868 4.84909,-1.07037 5.48409,-1.20376 l 1.15455,-0.242528 0.1447,-0.8627 c 0.20222,-1.20555 0.63971,-4.34233 1.12676,-8.07861 0.42285,-3.24381 0.575,-3.65606 1.3493,-3.65606 0.18388,0 0.48204,0.14771 0.66257,0.32825 0.28683,0.28684 0.31184,0.59642 0.19826,2.45341 -0.0715,1.16884 -0.33669,3.68281 -0.5893,5.58661 -0.25262,1.9038 -0.42634,3.4944 -0.38608,3.53467 0.0403,0.0403 2.48023,-0.36664 5.42215,-0.90424 8.52705,-1.55823 14.27326,-2.0372 19.08608,-1.59091 4.35409,0.40375 6.53595,1.13911 9.024,3.04141 1.88087,1.438048 2.15296,1.987438 1.37139,2.768988 -0.54705,0.54706 -1.10356,0.37669 -2.52411,-0.77274 -2.88879,-2.337428 -6.19596,-3.051778 -13.14178,-2.838598 -4.17244,0.12806 -5.17325,0.24079 -11.54546,1.300498 -5.34683,0.88919 -7.98222,1.47076 -8.08495,1.78418 -0.0399,0.12174 -0.2125,1.95317 -0.38354,4.06983 -0.17105,2.11667 -0.47425,5.32053 -0.67381,7.1197 -0.87109,7.85384 -1.34445,16.30347 -1.33672,23.86061 0.006,5.54315 0.20609,7.48165 0.91765,8.876447 0.37325,0.73161 0.93765,1.36839 1.06817,1.20513 2.2616,-2.828967 4.38473,-8.624157 7.34174,-20.039557 1.32447,-5.11313 1.29586,-5.05455 2.46193,-5.03867 1.49754,0.0204 1.52184,0.0928 1.19318,3.55246 -0.418,4.39992 -0.6345,9.88224 -0.46022,11.6536 0.17888,1.81803 0.71453,3.41665 1.17448,3.50523 0.98854,0.19037 4.62482,-6.99426 7.13908,-14.10555 0.48644,-1.37584 1.61634,-4.5797 2.51088,-7.1197 2.52869,-7.18006 3.36044,-9.36363 3.71662,-9.75721 0.45633,-0.50425 1.36583,-0.38277 1.83209,0.2447 0.36099,0.4858 0.36064,0.54327 -0.0223,3.65606 -0.214,1.73938 -0.74051,6.97251 -1.17008,11.62918 -0.42955,4.65666 -0.86131,9.15939 -0.95946,10.00606 -0.0982,0.84666 -0.23055,2.362 -0.2942,3.36742 l -0.11572,1.82803 0.59938,-0.67348 c 0.91009,-1.0226 4.14591,-5.37094 6.08572,-8.17803 6.30355,-9.12191 10.8921,-18.2779 13.5972,-27.13182 1.72972,-5.661488 2.34249,-9.493618 2.33847,-14.624238 -0.003,-3.50437 -0.0495,-4.04485 -0.52254,-6.04455 -1.42079,-6.00565 -4.59409,-9.35628 -9.50842,-10.0398 -1.72142,-0.23943 -3.4141,-0.0228 -5.68463,0.72766 -3.81718,1.26159 -7.32769,4.75992 -9.56963,9.53643 -1.03023,2.19499 -1.89701,4.647 -2.05984,5.82707 -0.14031,1.01705 -0.50294,1.48448 -1.15164,1.48448 -0.8199,0 -1.28974,-0.71674 -1.14796,-1.75114 0.32036,-2.3373 2.47534,-7.3553 4.34903,-10.127 2.72596,-4.0324 6.70432,-6.83745 11.06549,-7.80203 1.40097,-0.30986 4.60916,-0.25365 5.96516,0.10451 4.33318,1.14453 7.79678,4.59259 9.31891,9.27713 1.00341,3.08817 1.23971,4.76585 1.24042,8.80724 0.002,8.72516 -2.53009,17.905678 -7.95955,28.863628 -3.78502,7.63911 -9.35391,16.14563 -15.54459,23.74454 -0.8964,1.10032 -1.69837,2.2693 -1.78213,2.59772 -0.0838,0.32843 -0.20986,1.419747 -0.28021,2.425167 -0.17166,2.45299 -1.3478,12.8811 -1.84473,16.35606 -0.98804,6.90892 -2.76591,13.66396 -4.67526,17.76368 -2.9093,6.24677 -6.37284,9.7721 -11.2812,11.48242 -1.61876,0.56408 -5.29728,0.71713 -6.98119,0.29049 z m 7.0774,-2.75823 c 5.24708,-2.07039 9.28079,-8.07967 11.74244,-17.49348 0.7885,-3.01535 1.99236,-9.94368 2.48266,-14.28791 0.86619,-7.67494 1.11192,-10.14105 1.04403,-10.47825 -0.0481,-0.23868 -0.67804,0.35136 -2.17866,2.04056 -1.16107,1.30698 -4.94167,5.4936 -8.4013,9.3036 -11.86419,13.06565 -15.11013,17.40346 -16.60223,22.18682 -0.6644,2.12995 -0.66669,3.68653 -0.008,5.18004 0.84563,1.91622 2.18798,3.04087 4.57695,3.83468 1.20259,0.39959 1.66104,0.44935 3.59144,0.38972 1.93589,-0.0598 2.40558,-0.1444 3.75228,-0.67578 z m -200.20476,-13.7756 c 5.49169,-1.16417 9.93242,-5.075 11.14465,-9.8148 0.665,-2.60011 0.43386,-5.7667 -0.62597,-8.57584 -0.60495,-1.60344 -1.83086,-4.04091 -2.03237,-4.04091 -0.46147,0 -7.1786,5.64625 -10.30141,8.65909 -2.72261,2.62674 -4.536,4.89769 -5.5261,6.92041 -1.46079,2.98436 -1.16834,4.81969 0.97375,6.11111 0.56574,0.34109 1.38276,0.69982 1.81558,0.7972 1.18843,0.26736 3.13901,0.24325 4.55187,-0.0563 z m 156.91468,-30.50499 c 2.92204,-1.414337 5.94185,-4.071937 8.41704,-7.407427 1.06655,-1.43726 2.19704,-3.37671 1.96825,-3.37671 -0.25498,0 -4.02406,1.98634 -5.65864,2.98216 -4.03535,2.45842 -6.70824,4.68355 -7.91861,6.5921 -1.42871,2.252847 -0.0458,2.777037 3.19196,1.209877 z m -46.32415,-2.284477 c 0.34799,-0.51062 0.96804,-1.70108 1.37789,-2.64547 0.40984,-0.94438 1.19324,-2.71286 1.7409,-3.92994 1.6469,-3.66 3.80971,-8.77116 4.04778,-9.56574 0.20364,-0.67971 0.17148,-0.85551 -0.36369,-1.98806 -1.15473,-2.44374 -3.28229,-4.23576 -4.66761,-3.93149 -0.86899,0.19086 -2.31317,1.64857 -3.11768,3.14684 -0.92335,1.71963 -1.82249,5.20406 -1.98574,7.69543 -0.24078,3.67412 1.23531,12.14868 2.11578,12.14719 0.12081,-1.9e-4 0.50437,-0.41815 0.85237,-0.92876 z m -78.9705,-9.70493 c 1.02726,-1.04949 1.59691,-1.85246 2.2866,-3.22311 0.9814,-1.95034 1.50568,-3.90394 1.14458,-4.26503 -0.56708,-0.56708 -2.38976,0.87687 -3.34187,2.64747 -1.08156,2.01134 -2.22574,6.23837 -1.68858,6.23837 0.12715,0 0.84684,-0.62897 1.59927,-1.3977 z m 31.77111,-2.4398 c 3.14404,-1.45 7.26436,-5.86764 8.77506,-9.40829 0.61536,-1.44222 0.67339,-1.91613 0.29755,-2.43011 -1.0642,-1.4554 -5.85532,1.88311 -8.47913,5.90838 -1.30728,2.00555 -3.01383,6.22469 -2.66062,6.5779 0.15496,0.15497 0.68971,-0.0126 2.06714,-0.64788 z m 62.30996,-14.3947 c 4.81128,-7.23072 6.76985,-10.48714 9.57693,-15.92311 3.61042,-6.991658 5.60203,-13.332098 4.93717,-15.717848 -0.2089,-0.74958 -0.75779,-0.83406 -1.9244,-0.2962 -1.36442,0.62905 -2.76791,1.94016 -4.33878,4.0532 -5.01919,6.75145 -8.65557,16.097568 -11.20069,28.787808 -0.74449,3.71207 -0.85629,4.43592 -0.68514,4.43592 0.045,0 1.68075,-2.40289 3.63491,-5.33977 z m -78.95321,-4.04031 c 0.35408,-2.59188 0.41036,-3.6938 0.32927,-6.44621 -0.12992,-4.41054 -0.70483,-6.59209 -2.16244,-8.205488 -1.21758,-1.34772 -2.36045,-1.03325 -3.20796,0.88271 -1.28903,2.914088 -0.43727,7.897148 2.23678,13.085648 1.11989,2.17292 2.20595,3.99274 2.31397,3.87729 0.0348,-0.0372 0.25549,-1.47449 0.49038,-3.19395 z m 90.97158,2.11607 c -0.69249,-0.78861 -0.57128,-1.81232 0.24527,-2.07149 0.54502,-0.17298 1.26542,0.34409 1.39521,1.00142 0.22023,1.11532 -0.93757,1.87054 -1.64048,1.07007 z m 43.56816,-1.80402 c -0.52005,-0.19238 -0.69525,-0.58781 -0.53802,-1.21427 0.22014,-0.87712 1.42002,-0.8756 1.82001,0.002 0.40059,0.87919 -0.32562,1.56574 -1.28199,1.21197 z"
       id="path921" />
  </g>
</svg>
