<?xml version="1.0" encoding="UTF-8" standalone="no"?>
<svg
   xmlns:dc="http://purl.org/dc/elements/1.1/"
   xmlns:cc="http://creativecommons.org/ns#"
   xmlns:rdf="http://www.w3.org/1999/02/22-rdf-syntax-ns#"
   xmlns:svg="http://www.w3.org/2000/svg"
   xmlns="http://www.w3.org/2000/svg"
   xmlns:sodipodi="http://sodipodi.sourceforge.net/DTD/sodipodi-0.dtd"
   xmlns:inkscape="http://www.inkscape.org/namespaces/inkscape"
   version="1.1"
   id="svg2"
   xml:space="preserve"
   width="288.39835"
   height="215.4855"
   viewBox="0 0 288.39835 215.4855"
   sodipodi:docname="initials.svg"
   inkscape:version="1.0.2 (e86c870879, 2021-01-15, custom)"><metadata
     id="metadata8"><rdf:RDF><cc:Work
         rdf:about=""><dc:format>image/svg+xml</dc:format><dc:type
           rdf:resource="http://purl.org/dc/dcmitype/StillImage" /><dc:title></dc:title></cc:Work></rdf:RDF></metadata><defs
     id="defs6"><clipPath
       clipPathUnits="userSpaceOnUse"
       id="clipPath18"><path
         d="M 0,250 H 250 V 0 H 0 Z"
         id="path16" /></clipPath></defs><sodipodi:namedview
     pagecolor="#ffffff"
     bordercolor="#666666"
     borderopacity="1"
     objecttolerance="10"
     gridtolerance="10"
     guidetolerance="10"
     inkscape:pageopacity="0"
     inkscape:pageshadow="2"
     inkscape:window-width="1920"
     inkscape:window-height="1080"
     id="namedview4"
     showgrid="false"
     inkscape:zoom="2"
     inkscape:cx="94.495995"
     inkscape:cy="129.6691"
     inkscape:window-x="0"
     inkscape:window-y="0"
     inkscape:window-maximized="1"
     inkscape:current-layer="g20" /><g
     id="g10"
     inkscape:groupmode="layer"
     inkscape:label="PS Vector Artwork"
     transform="matrix(1.3333333,0,0,-1.3333333,-20.147791,285.5573)"><g
       id="g12"
       transform="translate(-1.9741383,8.3555267)"><g
         id="g14"
         clip-path="url(#clipPath18)"><g
           id="g20"
           transform="translate(202.6611,80.1299)"><path
             id="path22"
             style="fill:#e01675;fill-opacity:1;fill-rule:nonzero;stroke:none"
             d="m -26.078125,-35.90625 c -4.977583,0.214449 -10.134013,2.245719 -13.132608,6.372594 -2.516509,3.444115 -2.956134,8.083608 -1.701376,12.096156 1.67777,5.826584 5.549941,10.6941025 9.629861,15.0486419 6.268668,6.6221439 13.366062,12.3756236 20.442404,18.0997961 -2.333904,3.350272 -4.805331,6.601622 -7.176985,9.925287 -5.321616,7.344703 -10.863279,14.543972 -15.75034,22.191459 -5.202804,8.21133 -9.515976,17.253997 -10.748939,26.9893 -0.187038,1.42075 -0.29605,2.850976 -0.353033,4.282625 -3.254185,-1.918314 -6.549681,-3.80329 -9.765625,-5.765625 1.407375,-9.450386 1.047495,-19.242859 -1.701269,-28.42746 -3.269904,-10.808256 -9.446649,-20.95201 -18.436977,-27.925286 -7.589493,-5.891185 -16.866901,-9.445679 -26.363878,-10.6673866 -6.69451,-0.7260452 -13.81522,0.269153 -19.5467,3.9830236 -1.42779,0.956137 -2.72783,2.106516 -3.82813,3.427734 -0.71725,-11.4660202 -1.16891,-23.0319316 -1.77344,-34.537109 0.14817,-2.403341 -1.10499,-5.08598 -3.53711,-5.826172 -2.64194,-0.927928 -5.94827,0.925877 -6.23393,3.781346 -0.69337,4.892725 -0.40584,9.850292 -0.5323,14.7748504 -0.0751,18.0399051 -0.67335,36.0713446 -1.19735,54.1021926 -0.47049,15.912642 -1.10992,31.813181 -1.82157,47.724424 -5.10711,-6.98636 -11.3612,-13.197661 -18.71709,-17.80071 -4.64794,-2.93924 -9.85056,-5.30649 -15.39315,-5.738381 -4.06259,-0.23932 -8.47684,1.450056 -10.60354,5.071382 -1.73587,2.879343 -1.79278,6.983267 0.6005,9.51849 2.10298,2.100195 6.22545,1.380184 7.32523,-1.434245 0.52798,-1.02449 0.32035,-2.204152 0.5068,-3.294271 1.3392,-0.09276 2.68084,0.242377 3.98828,0.511719 5.22274,1.364477 9.84852,4.386241 13.95775,7.805842 6.54841,5.47101 11.65918,12.434393 15.98589,19.736853 1.14704,1.93496 2.43144,4.23155 4.79984,4.7886 2.55433,0.66407 5.45296,-0.89916 6.22765,-3.44109 0.85493,-2.32788 0.53246,-4.85369 0.75949,-7.27763 0.61972,-13.97015 1.19644,-27.942156 1.74399,-41.915309 2.12747,9.365817 4.94495,18.620672 9.01953,27.333984 3.25685,6.775998 7.36767,13.304605 13.04322,18.318395 4.93825,4.31081 11.296603,7.3494 17.953238,7.24179 6.906408,-0.1263 13.469239,-3.40256 18.462526,-8.04847 6.165493,-5.831386 10.293832,-13.526864 12.880824,-21.541478 0.311747,-0.215217 0.974201,0.51027 1.418643,0.666358 4.073983,2.455792 8.155599,4.898664 12.233737,7.34778 2.500788,8.99669 8.04919,16.96558 15.019531,23.09375 7.258304,6.21667 16.492601,10.13375 26.0222725,10.92864 8.0338143,0.54814 16.4167365,-2.3046 21.9539465,-8.26048 4.948855,-5.30829 7.639787,-12.38107 8.664011,-19.486025 0.785127,-5.731696 0.694269,-11.570597 -0.02664,-17.303579 -0.738566,-5.652039 -2.319093,-11.219557 -4.971701,-16.279997 -0.863608,-1.843594 -1.978062,-3.787951 -3.959794,-4.594946 -2.307072,-1.066829 -5.326004,0.148457 -6.200452,2.548691 -0.646572,1.45748 -0.249292,3.126837 0.622494,4.398324 1.024838,1.656056 2.074495,3.317948 2.643207,5.197834 1.71064,4.871849 2.334874,10.044143 2.721408,15.167944 0.04023,0.85108 0.07988,1.97613 0.06619,2.939436 -0.04627,5.572367 -0.954699,11.259618 -3.473543,16.276658 -2.324567,4.45913 -6.3684805,8.2706 -11.394025,9.33502 -2.0875417,0.49636 -4.46377632,0.46837 -6.4544856,0.25357 -6.6485937,-0.77146 -13.1858924,-3.10693 -18.5128434,-7.21522 -6.125146,-4.68928 -10.474013,-11.419344 -13.081149,-18.619845 -2.330709,-6.773623 -1.716644,-14.222909 0.424815,-20.959313 2.080728,-6.767929 5.579642,-13.014051 9.725445,-18.723387 C -16.937968,40.716623 -10.06497,31.274796 -3.2734375,21.775391 7.011972,30.087081 17.298668,38.397179 27.583984,46.708984 28.629682,43.32666 29.677823,39.945091 30.722656,36.5625 21.108907,28.840267 11.494761,21.118527 1.8808594,13.396484 4.6100175,8.1636818 6.8006246,2.5178358 7.1882003,-3.42421 7.7332517,-10.039933 6.0137426,-16.897912 2.0037359,-22.236686 c -4.0890635,-5.571954 -9.9157509,-9.896738 -16.4822519,-12.07972 -3.731312,-1.216394 -7.679801,-1.740971 -11.599609,-1.589844 z m 2.337891,9.666016 c 7.81977,0.429684 15.462578,4.851521 19.2482939,11.786643 2.5085606,4.4836252 2.5982451,9.9315977 1.3212445,14.80685137 C -3.7813368,2.7137956 -4.6864879,4.9924136 -5.7910156,7.1640625 -11.134206,2.6200192 -16.605594,-1.8362996 -21.743976,-6.5403993 c -3.428087,-3.3235275 -6.67636,-6.9521297 -8.89079,-11.2135067 -0.816909,-1.766801 -1.657434,-3.881545 -0.831887,-5.78994 1.064006,-1.794066 3.305905,-2.299218 5.221085,-2.59712 0.829321,-0.109294 1.669896,-0.151495 2.505334,-0.09927 z m -81.804686,42.27539 c 4.22961,0.02394 8.414659,0.946546 12.429668,2.225888 6.940366,2.237091 13.219076,6.43202 17.945554,11.984879 5.891054,6.816866 9.65066,15.383765 10.891413,24.294432 0.37413,2.526807 0.545505,5.074298 0.6088,7.563093 0.04036,2.053224 -0.0636,4.108121 -0.273874,6.150458 -10.3208,-5.571723 -20.757711,-10.953069 -30.770235,-17.072322 -4.937344,-3.094187 -9.700386,-6.420324 -14.000906,-10.41459 -3.58909,-3.385738 -6.97528,-7.224022 -8.78298,-11.880935 -1.0433,-2.718085 -1.43708,-6.067797 0.35881,-8.565747 2.1086,-2.709661 5.64966,-3.616859 8.88938,-4.102424 0.91787,-0.122892 1.8385,-0.173447 2.70437,-0.182732 z m -15.84961,25.609375 c 6.02072,7.581198 13.98894,13.308312 22.148937,18.378549 10.095696,6.164882 20.665148,11.496674 31.011103,17.220836 0.794309,0.436924 1.588618,0.873848 2.382928,1.310772 -2.042518,7.398416 -5.603584,14.611302 -11.348982,19.830807 -3.6095,3.224305 -8.497107,5.481635 -13.42055,4.760985 -4.987546,-0.78332 -9.167569,-4.080747 -12.357556,-7.833082 -5.21056,-6.161452 -8.63649,-13.608624 -11.27218,-21.177522 -3.73253,-10.716211 -6.05618,-21.924896 -7.6144,-33.104626 0.1569,0.204427 0.3138,0.408854 0.4707,0.613281 z" /></g></g></g></g></svg>
