<?xml version="1.0" encoding="UTF-8" standalone="no"?>
<svg
   xmlns:dc="http://purl.org/dc/elements/1.1/"
   xmlns:cc="http://creativecommons.org/ns#"
   xmlns:rdf="http://www.w3.org/1999/02/22-rdf-syntax-ns#"
   xmlns:svg="http://www.w3.org/2000/svg"
   xmlns="http://www.w3.org/2000/svg"
   xmlns:sodipodi="http://sodipodi.sourceforge.net/DTD/sodipodi-0.dtd"
   xmlns:inkscape="http://www.inkscape.org/namespaces/inkscape"
   width="474.13333mm"
   height="302.10608mm"
   viewBox="0 0 474.13333 302.10608"
   version="1.1"
   id="svg8"
   inkscape:version="1.0.2 (e86c870879, 2021-01-15)"
   sodipodi:docname="pureserendipity.svg">
  <defs
     id="defs2" />
  <sodipodi:namedview
     id="base"
     pagecolor="#ffffff"
     bordercolor="#666666"
     borderopacity="1.0"
     inkscape:pageopacity="0.0"
     inkscape:pageshadow="2"
     inkscape:zoom="0.35"
     inkscape:cx="705.79913"
     inkscape:cy="607.3042"
     inkscape:document-units="mm"
     inkscape:current-layer="layer1"
     inkscape:document-rotation="0"
     showgrid="false"
     inkscape:window-width="1920"
     inkscape:window-height="1080"
     inkscape:window-x="0"
     inkscape:window-y="0"
     inkscape:window-maximized="1" />
  <metadata
     id="metadata5">
    <rdf:RDF>
      <cc:Work
         rdf:about="">
        <dc:format>image/svg+xml</dc:format>
        <dc:type
           rdf:resource="http://purl.org/dc/dcmitype/StillImage" />
        <dc:title></dc:title>
      </cc:Work>
    </rdf:RDF>
  </metadata>
  <g
     inkscape:label="Layer 1"
     inkscape:groupmode="layer"
     id="layer1"
     transform="translate(133.07007,12.515903)">
    <path
       style="fill:#e11375;stroke:none;stroke-width:0.192424"
       d="M 61.470838,28.662888 C 61.082141,25.774407 59.733247,22.783172 58.439579,20.19622 53.579712,10.475332 43.712774,1.5815405 32.222353,6.2364179 29.627127,7.287824 27.30245,9.0388847 25.295273,10.967361 15.30653,20.564905 11.377035,36.651765 9.0833381,49.829556 8.3082532,54.282445 7.207779,58.960856 7.2072017,63.491678 H 6.8223533 c 0,-8.921174 -0.5647652,-17.844079 -0.9546167,-26.746972 C 5.6054624,30.752807 5.8483018,24.613319 5.1455684,18.656826 4.7562942,15.358482 5.2502472,11.944491 4.816523,8.650765 4.6629684,7.4852513 4.7201184,5.9330995 3.5309366,5.2750278 0.8470033,3.789705 -1.5763876,9.8580348 -2.6726285,11.537129 -7.504786,18.938728 -14.44168,26.393628 -23.003404,29.366391 c -2.003714,0.695613 -5.572029,1.84708 -6.969221,-0.513966 -0.511271,-0.863984 0.198966,-1.995439 -0.485679,-2.799965 -0.587664,-0.690418 -1.700068,-0.482023 -2.233083,0.152785 -0.533208,0.635192 -0.518969,1.483399 -0.509732,2.265218 0.04483,3.763049 3.93623,5.135034 7.118927,4.995526 6.154882,-0.269971 12.346517,-4.715164 16.740909,-8.684299 2.7957318,-2.524991 5.2957075,-5.403273 7.5268666,-8.433955 1.13818941,-1.546129 2.02449546,-3.512127 3.4413152,-4.810606 0,12.196042 1.3273424,24.364374 1.3469696,36.560608 0.013277,8.202661 0.769697,16.410903 0.769697,24.630305 0,9.093393 0.2772833,18.216034 0.3856182,27.324248 0.021936,1.84073 -0.2380288,4.60817 0.3173076,6.34903 0.3146136,0.98637 1.3756409,1.61002 2.3556575,1.09355 1.6021242,-0.84416 0.8980439,-3.84098 1.0931621,-5.32592 C 8.6515381,96.40854 8.2282048,90.447814 8.7793078,84.658346 10.753773,63.91174 11.021627,41.838561 21.019606,22.89016 25.443247,14.506428 33.754435,4.9761545 44.152656,9.5863318 c 6.104467,2.7064472 9.845001,8.7531872 12.36903,14.6507982 0.532053,1.243253 2.417426,4.867948 1.554211,6.116589 -0.682144,0.986752 -2.496705,1.568643 -3.532332,2.115513 -2.765136,1.459923 -5.539509,2.925233 -8.274242,4.441152 -9.398193,5.209694 -19.593406,10.09169 -27.324243,17.730548 -5.799859,5.730779 -13.0378964,16.870026 -5.00226,24.016856 1.058141,0.940954 2.354695,1.709689 3.655291,2.262139 5.659966,2.403764 12.352481,1.649269 18.087878,-0.02848 17.041284,-4.984557 26.908606,-21.235363 27.326167,-38.374014 0.08274,-3.32817 0.248227,-7.167804 -0.771621,-10.39091 L 72.631444,26.24296 83.79205,19.426523 c 0,4.048799 -0.667712,8.088361 -0.944803,12.122728 -0.656167,9.571375 -1.364288,19.060008 -1.364288,28.671214 0,4.849861 0.05773,13.03963 4.042833,16.5075 4.999182,4.348403 10.23697,-4.395932 12.072697,-8.040832 4.098641,-8.138969 6.684821,-16.859059 9.174791,-25.592426 1.42201,-4.99187 3.26544,-10.243706 3.95816,-15.393941 h 0.19243 c -0.0404,4.792519 -1.00253,9.646998 -1.32965,14.431819 -0.80241,11.708824 -1.30849,23.288915 -0.79472,35.021215 0.25593,5.836805 0.7139,15.415876 5.78043,19.333057 5.80736,4.488873 12.50757,-3.39725 15.5575,-7.595178 0.72736,-1.000798 1.40277,-2.04316 2.0801,-3.078788 7.54303,-11.557193 12.59032,-25.06653 16.93526,-38.100002 1.87037,-5.611476 4.58355,-11.970906 5.06653,-17.895456 5.84585,4.101138 10.82579,9.662969 17.31818,12.892425 -5.83045,11.436928 -11.78983,23.883699 -14.27788,36.560609 -0.93133,4.753071 -1.99928,10.920461 0.49069,15.39394 2.81516,5.06095 8.66678,2.175356 11.86295,-0.787015 5.51103,-5.106748 9.70203,-11.47041 13.54667,-17.878138 1.47589,-2.459759 3.55023,-5.1181 4.34879,-7.889394 0.3175,1.153776 -0.0654,2.450715 0.0173,3.656061 0.26747,3.916026 0.94481,8.52324 4.40844,10.959715 2.6747,1.881525 6.26534,1.607898 9.23637,0.649047 5.89395,-1.902306 10.98357,-5.883564 15.77878,-9.685097 11.85141,-9.396269 23.33144,-19.469486 37.71516,-24.831773 5.73424,-2.138026 12.54221,-4.1783 18.66515,-2.538653 6.83875,1.831109 7.69119,8.80341 5.1358,14.478578 -2.98642,6.629978 -9.50576,12.756189 -16.68126,14.61366 -0.80625,0.208588 -1.52977,-0.216862 -2.30909,-0.05369 -1.35466,0.283826 -1.74529,2.103004 -0.85244,3.067242 0.87168,0.940955 2.44764,0.706582 3.54638,0.403899 2.71511,-0.746991 5.31668,-1.96927 7.69697,-3.468447 7.83167,-4.933566 16.05011,-15.225954 12.7,-25.146002 -2.93639,-8.68834 -14.05467,-8.442422 -21.35909,-6.886672 -19.09426,4.066695 -33.25283,17.802708 -48.29848,29.135919 -3.93508,2.963718 -7.97791,6.05309 -12.7,7.64059 -2.86135,0.962121 -5.63034,1.112212 -7.57382,-1.603471 -2.9364,-4.100946 -1.68179,-10.806162 -0.90825,-15.393941 0.24823,-1.469544 0.45797,-3.996652 1.48744,-5.13715 0.69273,-0.767003 2.20711,-0.869181 3.14614,-1.225165 2.06856,-0.784707 4.0717,-1.818794 5.96515,-2.96064 5.61687,-3.388206 10.71803,-8.056034 14.5415,-13.383107 2.85365,-3.974715 5.30514,-8.400473 6.096,-13.277274 0.44258,-2.738389 -0.25592,-6.015374 -2.74204,-7.589405 -2.39184,-1.514186 -5.69191,-0.834736 -8.08182,0.327122 -5.16467,2.510944 -8.91309,7.326168 -11.92068,12.07289 -3.51944,5.558944 -6.14219,11.71017 -8.34352,17.895456 -0.8736,2.455333 -1.36044,5.096741 -2.3418,7.504545 -3.38282,8.306378 -8.78609,16.433609 -13.76218,23.860608 -2.56887,3.834053 -5.48025,7.637319 -9.04394,10.598536 -1.12568,0.935951 -3.00182,2.594456 -4.61818,2.229812 -2.286,-0.516082 -2.59581,-5.014384 -2.46688,-6.863196 0.48491,-6.85877 2.33603,-13.384261 4.71439,-19.819698 2.28793,-6.187402 5.207,-12.05461 7.83936,-18.08788 0.8967,-2.05105 3.02684,-4.807528 2.84981,-7.119698 -0.16356,-2.161309 -3.84079,-3.674918 -5.43214,-4.747106 -3.40014,-2.292158 -6.6675,-4.729981 -9.81364,-7.360228 -1.33734,-1.117407 -3.19039,-2.38837 -4.13904,-3.863879 -0.48106,-0.7493 -0.10006,-1.699491 0.0596,-2.501515 0.40986,-2.047394 0.83127,-4.098637 1.17764,-6.157576 1.23921,-7.35561 2.37066,-16.3368772 -0.40794,-23.4757593 -1.44511,-3.7082079 -4.56046,-7.3466987 -9.00546,-5.9835667 -4.01012,1.229851 -6.32691,5.3748325 -7.11969,9.254779 -1.5394,7.537412 0.85051,15.384704 4.94338,21.743941 1.25653,1.951759 2.64775,3.814233 4.15251,5.580303 0.62345,0.730443 1.82611,1.686021 1.91847,2.69394 0.10198,1.082194 -0.48298,2.421659 -0.74468,3.463636 -0.69465,2.778029 -1.51438,5.521614 -2.29947,8.274243 -3.175,11.126548 -7.62193,21.730664 -12.20355,32.327275 -2.83441,6.553585 -6.59053,13.667702 -11.55315,18.857577 -1.47012,1.537277 -4.08901,4.515812 -6.53473,4.113453 -2.29177,-0.376959 -3.36165,-3.356071 -3.97548,-5.267998 -1.80109,-5.617442 -2.18209,-11.842174 -2.18209,-17.703032 -0.002,-20.052147 2.38991,-39.690389 4.2468,-59.651519 0.4445,-4.7617305 1.27577,-9.5036991 1.93579,-14.2393948 0.19242,-1.3753523 1.10259,-3.8477346 -0.25977,-4.8601941 -2.02046,-1.5005435 -2.72281,1.6678373 -3.01337,2.9359516 -1.08912,4.734695 -2.11666,9.4910185 -3.14228,14.2393949 -3.66569,16.9581574 -7.69313,34.4391314 -14.04505,50.6075794 -1.512454,3.850024 -3.263515,7.884968 -5.832379,11.160606 -0.681181,0.868219 -2.251363,3.003935 -3.554075,2.702407 -1.168015,-0.269972 -1.668318,-2.10897 -1.991591,-3.087255 -1.060258,-3.218103 -0.960197,-6.514331 -1.395076,-9.813637 -0.390621,-2.977958 0.03656,-6.067329 0.109682,-9.04394 0.202045,-8.298489 1.185333,-16.535401 1.549015,-24.822729 0.117379,-2.693747 0.36753,-5.391728 0.552258,-8.081819 0.0712,-1.030816 0.244378,-2.555586 -0.492606,-3.387821 -2.012758,-2.272531 -4.870258,0.749492 -6.609773,1.838806 -6.047894,3.787679 -12.315152,7.188201 -18.472727,10.78538 M 152.29508,22.89016 c -5.14927,-6.833178 -10.19464,-14.4366298 -8.90347,-23.4757592 0.44642,-3.1221797 2.15708,-8.5482936 6.20953,-8.251229 3.05762,0.224078 4.1833,4.6311322 4.56623,7.0966835 0.91979,5.9456785 0.39832,11.9807187 -0.47337,17.8954557 -0.29825,2.021417 -0.33674,4.973205 -1.39892,6.734849 m 41.75606,30.980305 c 3.11342,-9.569066 7.19667,-19.897245 14.43182,-27.13182 1.90692,-1.907694 7.44489,-6.864543 10.34857,-3.997037 2.62275,2.590993 -0.29825,8.367377 -1.64715,10.92431 -3.58486,6.796232 -9.44995,12.907242 -16.01354,16.894272 -2.12629,1.291937 -4.62011,2.935817 -7.1197,3.310275 M 59.161747,33.858342 C 62.440656,51.457465 53.748853,71.367795 36.070838,77.282147 30.349296,79.196191 22.051,80.692674 16.828414,76.667159 c -4.476365,-3.45036 -3.24004,-9.144578 -0.692727,-13.367906 5.021503,-8.324658 14.351192,-13.827991 22.62909,-18.445789 4.403244,-2.456488 8.842664,-4.836391 13.277273,-7.235152 2.310053,-1.24941 4.652818,-2.86231 7.119697,-3.75997 M 294.49659,190.87653 c 1.86075,-14.72122 2.84403,-29.66489 4.21987,-44.45 0.3175,-3.42072 1.54516,-7.56708 1.13145,-10.96818 -0.20974,-1.72258 -2.07818,-2.96718 -3.6118,-1.82534 -1.11991,0.83551 -1.48359,2.50056 -1.94156,3.74958 -1.06026,2.88925 -2.1667,5.76022 -3.20194,8.65909 -3.79461,10.6224 -7.21399,21.40085 -11.71671,31.75 -1.51823,3.49251 -3.2462,6.97731 -5.2859,10.19849 -0.55225,0.87168 -1.52592,2.90176 -2.667,3.06724 -0.78894,0.11353 -1.23536,-1.16416 -1.47397,-1.72027 -0.88515,-2.06664 -0.84089,-4.17561 -1.12568,-6.35 -1.05641,-8.03448 1.3489,-16.44304 1.59135,-24.43788 0.052,-1.66736 -2.18786,-2.61639 -3.6272,-2.22558 -1.16416,0.31635 -1.60866,1.56768 -1.89538,2.61043 -0.66771,2.42435 -1.27192,4.87256 -1.8819,7.31212 -2.36682,9.46824 -4.76635,19.1693 -8.78994,28.09394 -0.97175,2.159 -1.98005,4.29299 -3.15769,6.35 -0.32712,0.5715 -0.86591,1.88768 -1.61059,1.99544 -1.02947,0.14817 -1.86459,-1.83573 -2.17247,-2.57271 -2.50921,-5.97093 -1.54131,-13.15797 -1.46627,-19.43485 0.16933,-14.35562 0.92171,-28.85248 2.80555,-43.10303 0.58881,-4.45809 0.85821,-8.99026 1.21804,-13.4697 0.0924,-1.14743 -0.11545,-4.26624 0.86976,-5.00534 0.79856,-0.59729 2.41877,-0.6173 3.38089,-0.83455 2.9922,-0.67617 6.02673,-1.20207 9.04394,-1.74625 12.35941,-2.22923 25.61744,-4.27162 38.1,-1.9175 2.6747,0.50453 5.22432,1.35524 7.50455,2.86808 1.50476,0.99887 2.94986,2.7255 4.61818,3.39186 1.56826,0.62634 3.02683,-0.49491 2.8652,-2.14418 -0.15587,-1.57903 -2.08973,-2.70087 -3.25005,-3.56408 -3.68492,-2.74109 -7.6123,-4.21121 -12.12273,-4.94992 -12.20547,-1.99891 -24.86698,-0.16684 -36.94545,1.85881 -4.25258,0.71313 -8.60329,2.08049 -12.89242,2.42186 0.11353,-5.54721 1.1199,-11.42924 1.84342,-16.933339 0.21167,-1.615402 0.87361,-5.181408 -1.651,-5.288011 -2.37452,-0.100253 -2.17055,3.893512 -2.30909,5.480435 -0.40024,4.566035 -1.2777,9.116485 -1.87037,13.662125 -0.2309,1.76992 0.0866,3.94335 -1.97812,4.44788 -11.51851,2.81421 -23.20251,5.19604 -34.82878,7.52091 -12.16506,2.43262 -24.53794,4.79848 -36.94546,5.34189 -5.48601,0.24014 -13.02327,0.35521 -17.89545,-2.56194 -1.16225,-0.69561 -1.17764,-1.9456 -2.14168,-2.71953 -0.93519,-0.75103 -2.26676,-0.38427 -2.77861,0.67425 -1.29309,2.68451 1.89345,5.12772 3.95817,6.09196 5.60147,2.6162 12.03613,2.75648 18.08787,2.75609 6.21531,-3.8e-4 12.5172,-0.98636 18.66516,-1.87209 12.60763,-1.81687 25.09019,-4.50735 37.52272,-7.25343 5.70731,-1.26077 11.52237,-3.01837 17.31818,-3.7669 -0.78316,4.22044 -0.77354,8.6258 -1.18725,12.89242 -0.66964,6.92959 -1.39123,13.85551 -2.05125,20.78182 -0.29056,3.04319 -0.0789,6.23166 -0.64269,9.23637 -0.44835,2.38356 -1.6587,4.82253 -2.45341,7.11969 -1.30464,3.76998 -2.53808,7.56767 -3.80038,11.35304 -1.29309,3.88312 -2.74589,7.70851 -4.16598,11.54545 -0.99676,2.69202 -2.02046,5.74002 -3.97934,7.8894 -4.35456,-11.28761 -2.07818,-24.10538 -1.13723,-35.79092 0.2617,-3.27352 0.7851,-6.55878 1.21805,-9.81363 0.20012,-1.4886 0.71774,-3.58429 0.002,-4.99457 -0.83512,-1.64176 -3.12881,-1.14011 -3.48095,0.569 -1.17956,5.72308 -2.12244,12.23664 -2.37452,18.08769 -4.59316,0.61903 -10.05031,2.85096 -14.23939,4.81061 1.40085,-6.7922 2.14746,-13.74929 -0.39639,-20.39698 -1.86844,-4.87968 -6.19799,-8.2346 -11.53391,-7.29595 -1.7145,0.30172 -3.30585,1.02273 -4.81061,1.88364 -10.22157,5.84816 -16.15979,18.20275 -20.32,28.69565 -1.48551,3.74458 -3.40398,8.27809 -3.73303,12.31515 h -0.19242 c 0,-10.00895 0.96212,-19.98999 0.96212,-30.01818 0,-2.67932 0.94673,-8.73895 -2.88636,-9.38415 -1.42972,-0.24053 -2.35143,0.89458 -2.87867,2.07203 -1.23152,2.75012 -1.99737,5.786 -2.88829,8.65909 -3.8177,12.28532 -7.24285,24.83042 -10.20426,37.3303 h -0.19242 c -0.49453,-3.35395 -1.54902,-6.5886 -1.89153,-10.00606 -0.79856,-7.98079 -0.80241,-16.02932 -0.80241,-24.05303 0,-2.6722 0.1828,-5.41732 -0.0173,-8.08182 -0.0808,-1.06603 -0.53494,-2.25579 -1.7145,-2.45687 -1.57403,-0.26786 -2.44571,1.10817 -2.75551,2.45687 -0.56573,2.46188 0.92941,4.38323 -0.15972,6.92727 -4.20254,9.8223 -8.58597,19.86588 -14.05659,29.05607 -1.58557,2.66315 -3.16345,5.43406 -5.40519,7.61422 -0.89478,0.87169 -2.15516,2.05125 -3.40784,1.15263 -2.14168,-1.53747 -3.08071,-4.7702 -3.61565,-7.22746 -1.27385,-5.86124 -1.00445,-11.58201 -1.00253,-17.51061 0.002,-2.38028 -0.16164,-6.07079 0.78702,-8.27424 0.85244,-1.98293 2.8498,-3.84771 4.14481,-5.5803 2.4765,-3.31624 4.76828,-6.75583 7.06197,-10.19849 8.22037,-12.33035 16.22329,-24.89912 22.23078,-38.48485 2.9845,-6.74928 6.86762,-15.127047 5.93628,-22.706061 -0.65039,-5.303212 -5.08769,-7.274022 -9.75783,-5.044402 -5.85354,2.794193 -9.66354,8.648701 -13.08485,13.895918 -11.76097,18.042465 -17.52792,41.372175 -20.20454,62.537885 h -0.19243 c -1.30656,-4.52775 -6.71753,-9.89022 -11.737875,-9.39589 -3.638743,0.35811 -6.734849,3.1675 -8.641773,6.12468 -3.16153,4.90277 -4.200621,10.89583 -6.619394,16.16363 -6.280727,13.67944 -13.013651,27.28384 -18.797924,41.17879 H 64.74205 c -0.879379,-3.69262 -0.290561,-7.81242 -0.01732,-11.54545 0.673484,-9.18056 2.880591,-18.19949 4.997257,-27.13182 1.291167,-5.4458 3.465561,-12.09444 2.041621,-17.70303 -1.527848,-6.01499 -7.952894,-3.87177 -11.639742,-1.47301 -5.985548,3.89544 -10.830983,9.78573 -14.096615,16.09725 -0.965392,1.86536 -2.272338,3.87196 -2.644294,5.96515 h -0.192424 c 0,-3.98453 0.140277,-8.17226 0.65886,-12.12273 0.405823,-3.09091 0.77547,-6.9975 -0.225906,-10.00606 -0.693304,-2.08337 -2.808624,-3.09495 -4.858712,-2.20653 -0.649816,0.28152 -1.194762,0.74507 -1.731048,1.19727 -0.895927,0.75507 -1.665817,1.65215 -2.418003,2.54866 -7.25959,8.65274 -12.083858,19.1312 -18.919536,28.09394 -1.806287,2.36874 -3.792105,4.7548 -6.1798974,6.56166 -0.8716818,0.66002 -2.1366787,1.6106 -3.2635151,1.02178 -1.0758439,-0.56188 -1.6602363,-1.89538 -2.0851091,-2.96526 -1.1306848,-2.84595 -2.7224181,-8.95927 -0.3490575,-11.51659 0.7150484,-0.77105 2.037003,-0.75527 3.0037424,-1.02024 1.6983363,-0.46547 3.3064257,-1.21843 4.8106057,-2.12667 6.368088,-3.84521 11.632046,-9.74032 15.078941,-16.31681 1.508991,-2.87924 2.964296,-6.40695 1.571914,-9.62121 -1.292706,-2.98411 -4.735753,-3.64875 -7.606915,-3.03818 -5.245678,1.11548 -9.766878,5.60916 -13.0692624,9.58061 -3.5833242,4.30934 -6.2993924,9.3828 -7.73487723,14.81666 -0.71889697,2.72146 -0.58881818,5.85047 -1.51033787,8.46667 -0.9111288,2.58618 -2.5546242,5.11079 -3.8819666,7.50455 -2.1493788,3.87542 -4.2356424,7.76432 -6.5520459,11.54545 -2.499783,4.08132 -5.673436,10.37167 -10.162116,12.50758 -0.92152,-11.6763 2.958907,-23.94335 6.296121,-35.02122 0.835314,-2.77302 1.717194,-5.54489 2.688552,-8.27424 0.559569,-1.5721 1.458383,-3.31681 1.557481,-5.00303 0.09968,-1.69641 -1.18668,-3.05185 -2.213648,-4.23333 -1.657735,-1.90693 -3.327977,-3.79596 -4.903162,-5.77273 -0.618452,-0.77624 -1.600393,-1.71315 -1.858241,-2.69394 -0.500688,-1.90384 0.786245,-5.16274 1.074497,-7.1197 0.767003,-5.20584 1.206885,-10.32683 1.206885,-15.58636 0,-6.00672 -0.876108,-13.02 -4.717858,-17.89546 -3.413798,-4.33243 -9.226935,-4.5566 -12.38808,0.19243 -6.409844,9.63006 -0.576696,23.58448 4.379191,32.5197 1.089506,1.96426 2.244821,3.90371 3.490383,5.77272 0.648855,0.97367 1.731818,2.11994 2.011026,3.27122 0.257463,1.06179 -0.394277,2.61216 -0.641735,3.65606 -0.690611,2.91292 -1.525347,5.79254 -2.385291,8.65909 -3.000856,10.00183 -6.95325,20.34501 -13.087542,28.86364 -2.09627,2.91138 -5.168515,7.24285 -8.794943,8.31272 -1.84631,0.54457 -2.940434,-1.26615 -3.539643,-2.73242 -1.261149,-3.08649 -2.354311,-8.43973 -1.353128,-11.73018 0.490297,-1.61059 4.342823,-3.24043 5.662468,-4.35456 4.416329,-3.72726 8.028709,-9.30603 8.959658,-15.08799 0.467398,-2.9033 -0.02425,-6.49316 -3.379355,-7.35811 -5.528925,-1.42567 -9.908886,5.07788 -11.78964,9.28235 -1.11991,2.50325 -1.893647,5.207 -2.449176,7.8894 -0.259773,1.25422 -0.20955,3.29623 -0.950768,4.35263 -0.746991,1.06796 -2.288694,1.96658 -3.283143,2.81902 -2.522104,2.16285 -5.10463,4.26027 -7.696969,6.33653 -7.536681,6.03827 -14.945976,12.29783 -22.706061,18.0494 -2.37567,-5.50526 -7.2186,-10.61797 -10.80019,-15.39394 -9.95757,-13.27728 -22.06416,-27.60615 -24.3591,-44.64243 -2.39672,-17.79174 8.71556,-34.57806 24.76838,-41.81495 7.510127,-3.38551 16.388966,-4.67687 24.053031,-1.03409 13.178559,6.26399 14.421235,24.1302 12.7,36.69146 -0.381,2.77976 -0.851477,5.57203 -1.621559,8.27424 -0.65405,2.29389 -1.445683,4.62357 -2.569826,6.73485 -0.470284,0.88342 -1.411816,1.57192 -1.737591,2.50441 -0.639425,1.83014 1.6002,2.98007 3.041843,2.11204 1.219585,-0.73448 1.926167,-2.23597 2.549236,-3.4619 1.431444,-2.81632 2.512484,-5.79197 3.295458,-8.85152 3.12266,-12.20181 3.311813,-27.69735 -3.668568,-38.67727 -1.388341,-2.18382 -3.080713,-4.20909 -5.06172,-5.88068 -14.217073,-11.996497 -35.945234,-4.06939 -47.496114,7.82205 -3.10361,3.1952 -5.79066,6.82528 -7.87975,10.75863 -1.64063,3.08899 -3.0408,6.3856 -3.80899,9.81364 -4.70888,21.01369 7.23366,38.72634 18.91239,55.03333 3.95162,5.51681 8.23191,10.795 12.12465,16.35606 1.03062,1.47205 3.858679,4.27567 3.962204,6.10178 0.04849,0.85629 -1.781464,1.85689 -2.368935,2.32641 -2.520949,2.0166 -5.031699,4.04091 -7.504539,6.11716 -2.14419,1.79917 -4.27375,3.62143 -6.35,5.49949 -1.64429,1.48744 -3.2426,3.01721 -4.81061,4.58547 -1.18566,1.18533 -2.31548,2.4053 -3.43171,3.65606 -5.21576,5.84392 -12.49112,16.63123 -5.41698,23.86061 1.0299,1.05256 2.15467,1.86459 3.46081,2.54385 4.34927,2.25713 9.75957,2.13013 14.43182,1.18918 13.398689,-2.69587 25.052478,-14.53765 24.430371,-28.74819 -0.224559,-5.12618 -1.739515,-9.96565 -3.814234,-14.62424 -0.452389,-1.016 -2.835756,-4.27567 -2.336992,-5.2705 0.432955,-0.86206 1.758758,-1.54324 2.50267,-2.12244 2.058362,-1.60674 4.117301,-3.21541 6.157575,-4.84524 7.320973,-5.84585 15.042381,-11.43 21.936364,-17.78 0,4.57969 0.06773,9.46342 2.168621,13.66212 1.865361,3.72918 5.449262,5.40905 9.376833,3.75997 1.25884,-0.52917 2.428202,-1.36814 3.463637,-2.24559 1.711613,-1.4528 3.243695,-3.03838 4.655704,-4.78559 9.680094,-11.97456 13.954799,-27.2161 18.050356,-41.75607 1.363903,1.80975 2.886171,3.50617 4.393815,5.19546 0.543984,0.6096 1.504181,1.41663 1.441065,2.30909 -0.09179,1.29732 -0.954424,2.80882 -1.376603,4.04091 -1.0033,2.9285 -1.968692,5.87933 -2.837295,8.85151 -2.774373,9.49614 -5.266652,19.18085 -6.206452,29.05607 -0.137775,1.44703 -0.06542,2.97295 -0.02982,4.42576 0.106795,4.36225 3.385127,7.54495 7.501659,4.8029 4.328968,-2.88251 7.349836,-7.97021 10.0430057,-12.30745 2.7965015,-4.50273 4.89585,-10.17347 8.23729692,-14.2394 0.40235908,4.92414 3.84174998,11.29916 9.62121208,9.71935 2.3319893,-0.63692 4.2308313,-2.45725 5.9480253,-4.05822 7.401214,-6.89841 12.156402,-16.94277 17.720156,-25.2884 2.112434,-3.16865 4.251229,-7.28037 7.312121,-9.62121 0.748723,3.14459 -0.04811,7.1959 -0.352136,10.39091 -0.543598,5.71038 -0.802409,11.58009 -0.802409,17.31818 0,2.18786 -1.102014,8.47052 2.309091,8.60329 2.581179,0.0981 3.225223,-6.15565 3.848485,-8.02602 2.896754,-8.69045 6.492586,-16.72282 13.084848,-23.28314 1.922318,-1.91231 4.110182,-3.64163 6.542424,-4.85717 0.6985,-0.34925 2.057015,-1.18072 2.805546,-0.5994 0.937106,0.72659 0.658091,2.50574 0.658091,3.53214 -0.0019,3.46844 -0.892849,7.03445 -1.706803,10.39091 -2.8575,11.78021 -5.990167,23.98375 -5.990167,36.17576 0,2.93254 -0.08274,6.26148 0.975591,9.04394 0.658091,1.73566 2.105121,2.92677 4.027439,2.34757 3.69647,-1.11414 5.72847,-7.82204 7.146637,-11.00667 1.62406,-3.64644 3.236575,-7.30057 4.81253,-10.96818 2.461106,-5.73039 4.716318,-11.93223 7.86053,-17.31818 1.185333,4.97801 1.348894,10.19656 2.670849,15.20151 0.556106,2.1032 1.450878,4.96455 3.486727,6.07676 3.309697,1.80879 6.130636,-1.63753 7.658485,-4.15251 2.274451,-3.74843 3.667601,-7.95867 5.486011,-11.93031 1.73374,-3.78691 4.03514,-7.7139 5.1358,-11.73788 h 0.19243 c -0.0616,7.48531 -0.61576,15.39972 2.31101,22.51364 1.26231,3.06532 3.26737,6.51741 6.92535,6.89456 3.87735,0.3964 6.92727,-3.30585 8.9054,-6.12486 3.54445,-5.04921 6.28457,-10.6603 9.03816,-16.16364 1.65293,-3.30546 3.74458,-6.83144 4.7625,-10.39091 h 0.19243 c 0,7.92403 0.25784,16.3272 2.18786,24.05303 0.65039,2.60158 1.92039,7.27172 5.50911,6.46738 3.53098,-0.79279 4.53736,-6.81951 5.26665,-9.73859 1.68563,-6.7387 3.14806,-13.52377 5.06845,-20.20455 1.18534,-4.12519 3.13844,-8.45127 3.71187,-12.7 h 0.19242 c 0,5.88896 -0.50415,11.82101 -0.762,17.70303 -0.21167,4.83178 -0.0654,9.82904 -0.69658,14.62425 -0.89669,6.83683 -0.58881,13.90457 -1.06025,20.78182 -0.54072,7.89517 -0.15587,16.01162 -1.08143,23.86061 -0.20589,1.73566 -0.21744,7.01963 3.01914,5.35324 1.81648,-0.93326 1.58173,-4.1987 1.76838,-5.93052 0.61575,-5.76503 1.11798,-11.53776 1.524,-17.31818 1.32195,-18.87297 5.13388,-38.76579 15.22075,-55.03334 2.65546,-4.28298 5.97863,-8.25596 9.9695,-11.35014 1.68564,-1.30675 4.11788,-2.79708 6.35,-2.65584 3.10958,0.19685 4.9607,3.26428 5.83623,5.92416 1.85305,5.62707 1.49514,13.38754 -0.85821,18.85469 -0.47336,1.09586 -1.66062,1.41413 -2.66892,1.86825 -2.20134,0.99214 -4.40652,1.96792 -6.54243,3.09553 -7.2313,3.81558 -14.21438,8.07008 -20.01212,13.89669 -2.81901,2.83248 -6.85223,8.90154 -2.67662,12.40559 3.08071,2.58426 7.52571,1.12953 10.75844,-0.28286 8.08759,-3.53676 15.25347,-10.82579 19.78121,-18.28031 1.06795,-1.75876 2.10897,-3.52906 2.99412,-5.38788 0.47529,-0.99483 0.85052,-2.44186 1.70296,-3.17519 1.10644,-0.95173 3.03645,-1.34351 4.38534,-1.86421 3.60411,-1.39142 7.29481,-2.61697 10.96819,-3.81211 -0.0654,7.90671 -0.98522,15.39394 0.50222,23.28333 0.51762,2.7459 1.15647,6.67712 3.73111,8.27617 3.15191,1.95503 5.84777,-1.61444 7.19859,-4.04283 2.59388,-4.66244 4.26797,-10.15231 5.94976,-15.20152 0.81395,-2.43802 2.06086,-4.95493 2.43801,-7.50455 h 0.19243 c 0,7.00809 -0.87553,14.28366 0.93903,21.16667 0.7466,2.82671 2.16477,6.32114 5.02612,7.59499 3.99088,1.778 6.2942,-2.35912 7.91633,-5.2859 3.10188,-5.59569 5.38211,-11.76674 7.17358,-17.89545 0.63692,-2.17632 1.64523,-4.46867 1.84342,-6.73485 h 0.19243 c 0,5.01073 -0.61961,10.32933 1.72604,15.00909 1.82034,3.63297 5.54374,4.72402 8.64755,1.86652 3.26159,-3.00182 5.23586,-7.93558 7.09468,-11.87258 3.35973,-7.11085 6.02095,-14.48224 8.509,-21.93637 0.97944,-2.93697 2.55539,-5.99632 3.07879,-9.04394 0.5003,1.74471 -0.17319,4.16426 -0.35214,5.96516 -0.46182,4.6176 -0.90055,9.23617 -1.34697,13.85454 -0.5638,5.82738 -1.12761,11.67246 -1.55479,17.51061 -0.18088,2.46303 0.14625,6.22492 -0.89669,8.46667 -0.81973,1.76453 -2.62082,3.34048 -3.87928,4.8106 -2.7786,3.2462 -5.64188,6.41543 -8.46282,9.62122 -9.97719,11.33186 -20.67021,22.06336 -30.11246,33.86666 -1.41817,1.77223 -2.82864,3.55408 -4.16599,5.38788 -6.14411,8.42241 -14.31059,21.88249 -6.32883,31.75001 1.05063,1.29693 2.22057,2.39953 3.60603,3.33471 2.09935,1.41624 4.47194,2.39183 6.92727,2.99027 16.50038,4.02744 28.90789,-9.20173 34.85765,-23.06589 6.1037,-14.22016 8.11838,-30.14519 9.75206,-45.41213 0.54264,-5.06461 1.04871,-10.13306 1.5394,-15.20152 0.17703,-1.8338 -0.10776,-4.47771 0.66771,-6.15757 1.30848,-2.82864 4.25642,-5.42252 6.1672,-7.8894 4.17753,-5.39557 8.26846,-10.86812 12.05537,-16.54848 11.1914,-16.78844 20.74719,-35.17092 25.66362,-54.84091 2.75552,-11.01591 4.04669,-22.634869 1.9281,-33.866673 -0.7774,-4.123459 -2.30717,-8.18669 -4.54506,-11.73788 -1.38161,-2.194406 -3.14422,-4.201391 -5.1512,-5.846618 -12.7077,-10.421313 -30.66473,-3.55677 -39.51817,8.348134 -3.51366,4.7244 -6.02673,10.210416 -7.8817,15.778789 -0.60613,1.820141 -1.74143,4.640503 -0.8813,6.534727 0.86014,1.891911 3.28276,1.483401 3.84271,-0.377151 1.52593,-5.071341 2.71126,-9.895033 5.3494,-14.624244 6.21145,-11.134244 19.94862,-21.060449 32.93148,-14.553046 12.8982,6.46507 13.48124,23.91083 12.15544,36.296992 -2.42454,22.63717 -13.12333,44.21293 -25.29994,63.11515 -4.87988,7.57555 -10.04839,15.79226 -16.29641,22.32121 M 115.9269,158.54926 c -0.45605,-1.1659 0.23283,-3.02549 0.45989,-4.23333 0.62538,-3.34876 1.32773,-6.6752 2.04162,-10.00607 3.1827,-14.86131 8.08182,-29.98912 16.22522,-42.9106 2.50151,-3.970101 5.31668,-8.240765 9.17478,-11.017062 1.16994,-0.842434 3.25005,-2.361431 4.80291,-1.759143 1.55864,0.605174 1.21227,3.379162 1.15455,4.694382 -0.2059,4.693805 -2.15515,9.543473 -3.87928,13.854543 -4.98763,12.46736 -11.94569,24.18658 -19.26936,35.40607 -3.47903,5.32784 -7.56612,10.45056 -10.71033,15.97121 M -24.15795,146.81138 c -1.733742,-1.11202 -2.974878,-4.34667 -3.895436,-6.15758 -2.930621,-5.76503 -6.674812,-13.32364 -5.807363,-20.01212 0.348095,-2.68451 0.652703,-7.9019 4.122496,-8.58039 3.404947,-0.66579 5.350934,5.20546 5.987473,7.61827 2.406843,9.12303 0.314037,17.99321 -0.40717,27.13182 m 249.58194,-8.70874 c -2.26676,0.91883 -0.42718,4.2166 1.72027,3.39725 2.34565,-0.89554 0.45989,-4.2797 -1.72027,-3.39725 m -80.05233,2.85442 c -2.47843,0.69773 -0.9525,4.93934 1.34312,4.38939 2.53807,-0.60786 1.28154,-5.12906 -1.34312,-4.38939 M 3.5511412,176.25229 c 0.3309697,-7.68793 6.4918168,-15.73049 12.1227268,-20.41217 1.558252,-1.29579 6.277841,-5.04286 8.405476,-2.98008 1.953491,1.89384 -1.256723,6.54204 -2.2479,8.19073 -3.767282,6.26611 -10.557548,14.20419 -18.2803028,15.20152 M 99.185989,156.49128 c 3.596411,-0.48722 6.544351,4.21929 7.997151,6.86859 0.48491,0.88207 1.14108,2.0547 1.18533,3.07878 0.0885,2.04894 -1.75683,4.85314 -2.5246,6.73485 -2.27446,5.58377 -4.90297,11.01244 -7.289033,16.54849 -1.067954,2.47842 -2.041621,4.99726 -3.448242,7.31212 -0.348288,0.5715 -1.09297,2.07626 -1.881909,2.07626 -0.83897,0 -1.154545,-1.86267 -1.350818,-2.46111 -0.896697,-2.72857 -1.337349,-5.64188 -1.810712,-8.46667 -1.387379,-8.27039 -1.066031,-16.19423 2.080106,-24.05303 1.185333,-2.96256 3.507894,-7.15953 7.042727,-7.63828 m -153.939393,25.91859 c 0.202623,-4.71902 2.040274,-10.25314 4.840624,-14.04697 0.671561,-0.90979 3.268518,-3.85888 4.672061,-2.87809 1.147426,0.80183 -0.05099,4.00608 -0.432377,4.99475 -1.761837,4.56739 -4.723631,9.42398 -9.080308,11.93031 m 254.769694,-0.7697 c -3.23273,7.76432 -10.49482,15.03411 -17.70303,19.15968 -1.91462,1.09682 -3.96779,2.08973 -6.15757,2.46496 -0.74276,0.12892 -1.9839,0.1905 -2.46688,-0.54071 -0.4522,-0.68311 0,-1.77031 0.31557,-2.41878 0.9525,-1.9608 2.5477,-3.4925 4.07555,-5.00303 4.30453,-4.25257 9.86559,-7.64116 15.20151,-10.44094 2.17247,-1.13915 4.36226,-2.53807 6.73485,-3.22118 m -33.35289,7.63347 -0.0654,0.127 0.0654,-0.127 m 122.44531,15.07259 c -1.15646,14.63964 -2.74204,29.53328 -6.0325,43.87273 -2.00698,8.74184 -4.82984,17.86467 -10.15999,25.20758 -2.4284,3.34433 -5.23972,6.43659 -8.82266,8.5725 -6.72715,4.01012 -17.33165,4.62588 -23.25062,-1.29309 -6.76563,-6.76564 -1.4451,-17.30664 2.85365,-23.8279 8.52632,-12.93091 19.70232,-24.27624 30.19329,-35.59848 3.51559,-3.79269 6.95999,-7.66234 10.37744,-11.54546 1.55479,-1.76453 3.01336,-3.91198 4.84139,-5.38788 m -383.116659,11.93031 c 1.52323,3.26159 3.25043,6.3346 4.28702,9.81363 2.244051,7.53149 1.405466,15.57482 -3.450744,21.93637 -4.953193,6.48854 -14.103157,11.21256 -22.387787,10.42362 -3.19607,-0.30403 -6.51786,-0.85821 -8.53631,-3.68877 -1.98967,-2.79208 -0.82929,-6.4212 0.42776,-9.23637 3.1201,-6.985 9.69229,-12.47486 15.22824,-17.49713 2.97873,-2.69972 6.1164,-5.24934 9.236366,-7.78549 1.638685,-1.33158 3.312584,-3.00374 5.195455,-3.96586 z"
       id="path901" />
  </g>
</svg>
